<svg
  xmlns="http://www.w3.org/2000/svg"
  viewBox="0 0 1792 1792"
  aria-labelledby="title"
  width="1em"
  height="1em"
  stroke="#d89959"
  fill="none"
>
  <title id="title">Measure Temp</title>
  <g fill="none" stroke-width="2">
  <path fill="#d89959" d="M1152 896q0 106-75 181t-181 75-181-75-75-181 75-181 181-75 181 75
    75 181zm-256-544q-148 0-273 73t-198 198-73 273 73 273 198 198 273 73 273-73
    198-198 73-273-73-273-198-198-273-73zm768 544q0 209-103 385.5t-279.5
    279.5-385.5 103-385.5-103-279.5-279.5-103-385.5 103-385.5 279.5-279.5
    385.5-103 385.5 103 279.5 279.5 103 385.5z"
  />
  </g>
</svg>
